<?xml version="1.0" encoding="UTF-8"?>
<svg xmlns="http://www.w3.org/2000/svg" viewBox="0 0 1920 1080" width="1920" height="1080">
  <defs>
    <linearGradient id="headerGrad" x1="0%" y1="0%" x2="100%" y2="0%">
      <stop offset="0%" style="stop-color:#3D2914"/>
      <stop offset="50%" style="stop-color:#5C4033"/>
      <stop offset="100%" style="stop-color:#3D2914"/>
    </linearGradient>
    <filter id="cardShadow">
      <feDropShadow dx="2" dy="4" stdDeviation="4" flood-color="#000" flood-opacity="0.4"/>
    </filter>
  </defs>

  <!-- Sfondo -->
  <rect width="1920" height="1080" fill="#0f0f0f"/>

  <!-- Titolo pagina -->
  <text x="960" y="50" font-family="Georgia, serif" font-size="28" fill="#DAA520" text-anchor="middle" font-weight="bold">STRUTTURA NAVIGAZIONE DIARIO - SEZIONI DETTAGLIATE</text>

  <!-- ========== SEZIONE 1: TAB CAPITOLI ========== -->
  <g transform="translate(50, 100)">
    <rect x="0" y="0" width="580" height="450" fill="#1a1208" stroke="#5C4033" stroke-width="2" rx="10"/>
    <rect x="0" y="0" width="580" height="50" fill="url(#headerGrad)" rx="10"/>
    <rect x="0" y="40" width="580" height="15" fill="url(#headerGrad)"/>
    <text x="290" y="35" font-family="Georgia, serif" font-size="18" fill="#DAA520" text-anchor="middle" font-weight="bold">1. NAVIGAZIONE CAPITOLI</text>

    <!-- Descrizione -->
    <text x="20" y="80" font-family="Georgia, serif" font-size="13" fill="#C4B598">
      <tspan x="20" dy="0">I capitoli si sbloccano man mano che il giocatore</tspan>
      <tspan x="20" dy="20">avanza nella storia. Ogni capitolo contiene:</tspan>
    </text>

    <!-- Card capitolo esempio -->
    <g transform="translate(20, 130)" filter="url(#cardShadow)">
      <rect x="0" y="0" width="540" height="100" fill="#2a1f14" stroke="#8B7355" stroke-width="2" rx="8"/>

      <!-- Numero capitolo -->
      <rect x="10" y="10" width="60" height="80" fill="#3D2914" stroke="#DAA520" stroke-width="2" rx="5"/>
      <text x="40" y="40" font-family="Georgia, serif" font-size="24" fill="#DAA520" text-anchor="middle" font-weight="bold">III</text>
      <text x="40" y="65" font-family="Georgia, serif" font-size="10" fill="#8B7355" text-anchor="middle">CAPITOLO</text>

      <!-- Info capitolo -->
      <text x="90" y="35" font-family="Georgia, serif" font-size="16" fill="#E8DCC8" font-weight="bold">La Biblioteca di Atene</text>
      <text x="90" y="55" font-family="Georgia, serif" font-size="12" fill="#8B7355">Atene, 532 d.C. - La Grande Biblioteca</text>

      <!-- Barra progresso -->
      <rect x="90" y="70" width="300" height="8" fill="#1a1208" stroke="#5C4033" stroke-width="1" rx="4"/>
      <rect x="90" y="70" width="180" height="8" fill="#DAA520" rx="4"/>
      <text x="400" y="78" font-family="Arial" font-size="11" fill="#DAA520">60%</text>

      <!-- Indicatori contenuto -->
      <g transform="translate(440, 20)">
        <circle cx="0" cy="0" r="12" fill="#228B22"/>
        <text x="0" y="5" font-family="Georgia" font-size="10" fill="#fff" text-anchor="middle">4</text>
        <text x="0" y="30" font-family="Arial" font-size="9" fill="#8B7355" text-anchor="middle">scene</text>
      </g>
      <g transform="translate(480, 20)">
        <circle cx="0" cy="0" r="12" fill="#4169E1"/>
        <text x="0" y="5" font-family="Georgia" font-size="10" fill="#fff" text-anchor="middle">2</text>
        <text x="0" y="30" font-family="Arial" font-size="9" fill="#8B7355" text-anchor="middle">NPC</text>
      </g>
      <g transform="translate(520, 20)">
        <circle cx="0" cy="0" r="12" fill="#8B0000"/>
        <text x="0" y="5" font-family="Georgia" font-size="10" fill="#fff" text-anchor="middle">3</text>
        <text x="0" y="30" font-family="Arial" font-size="9" fill="#8B7355" text-anchor="middle">indizi</text>
      </g>
    </g>

    <!-- Stati capitolo -->
    <g transform="translate(20, 260)">
      <text x="0" y="0" font-family="Georgia, serif" font-size="14" fill="#DAA520" font-weight="bold">STATI CAPITOLO:</text>

      <!-- Completato -->
      <g transform="translate(0, 20)">
        <circle cx="12" cy="12" r="12" fill="#228B22"/>
        <text x="12" y="17" font-family="Georgia" font-size="12" fill="#fff" text-anchor="middle">&#10003;</text>
        <text x="35" y="17" font-family="Georgia, serif" font-size="12" fill="#C4B598">Completato - tutte le scene lette</text>
      </g>

      <!-- In corso -->
      <g transform="translate(0, 50)">
        <circle cx="12" cy="12" r="12" fill="#DAA520"/>
        <text x="12" y="17" font-family="Georgia" font-size="12" fill="#3D2914" text-anchor="middle" font-weight="bold">!</text>
        <text x="35" y="17" font-family="Georgia, serif" font-size="12" fill="#C4B598">In corso - nuovi contenuti disponibili</text>
      </g>

      <!-- Bloccato -->
      <g transform="translate(0, 80)">
        <circle cx="12" cy="12" r="12" fill="#3D2914" stroke="#5C4033" stroke-width="1"/>
        <rect x="6" y="8" width="12" height="8" fill="none" stroke="#5C4033" stroke-width="1.5" rx="1"/>
        <text x="35" y="17" font-family="Georgia, serif" font-size="12" fill="#666">Bloccato - avanza nella storia</text>
      </g>

      <!-- Segreto -->
      <g transform="translate(0, 110)">
        <circle cx="12" cy="12" r="12" fill="#4B0082"/>
        <text x="12" y="17" font-family="Georgia" font-size="12" fill="#DDA0DD" text-anchor="middle">?</text>
        <text x="35" y="17" font-family="Georgia, serif" font-size="12" fill="#9370DB">Segreto - contenuto bonus sbloccabile</text>
      </g>
    </g>
  </g>

  <!-- ========== SEZIONE 2: TAB CONTENUTO ========== -->
  <g transform="translate(670, 100)">
    <rect x="0" y="0" width="580" height="450" fill="#1a1208" stroke="#5C4033" stroke-width="2" rx="10"/>
    <rect x="0" y="0" width="580" height="50" fill="url(#headerGrad)" rx="10"/>
    <rect x="0" y="40" width="580" height="15" fill="url(#headerGrad)"/>
    <text x="290" y="35" font-family="Georgia, serif" font-size="18" fill="#DAA520" text-anchor="middle" font-weight="bold">2. TAB CONTENUTO CAPITOLO</text>

    <!-- Tab bar -->
    <g transform="translate(20, 70)">
      <rect x="0" y="0" width="100" height="35" fill="#5C4033" stroke="#DAA520" stroke-width="2" rx="5"/>
      <text x="50" y="24" font-family="Georgia, serif" font-size="12" fill="#E8DCC8" text-anchor="middle" font-weight="bold">STORIA</text>

      <rect x="108" y="0" width="100" height="35" fill="#2a1f14" stroke="#5C4033" stroke-width="1" rx="5"/>
      <text x="158" y="24" font-family="Georgia, serif" font-size="12" fill="#8B7355" text-anchor="middle">GALLERIA</text>

      <rect x="216" y="0" width="100" height="35" fill="#2a1f14" stroke="#5C4033" stroke-width="1" rx="5"/>
      <text x="266" y="24" font-family="Georgia, serif" font-size="12" fill="#8B7355" text-anchor="middle">PERSONAGGI</text>

      <rect x="324" y="0" width="100" height="35" fill="#2a1f14" stroke="#5C4033" stroke-width="1" rx="5"/>
      <text x="374" y="24" font-family="Georgia, serif" font-size="12" fill="#8B7355" text-anchor="middle">LUOGHI</text>

      <rect x="432" y="0" width="100" height="35" fill="#2a1f14" stroke="#5C4033" stroke-width="1" rx="5"/>
      <text x="482" y="24" font-family="Georgia, serif" font-size="12" fill="#8B7355" text-anchor="middle">INDIZI</text>
    </g>

    <!-- Descrizione tab -->
    <g transform="translate(20, 130)">
      <text font-family="Georgia, serif" font-size="13" fill="#C4B598">
        <tspan x="0" dy="0" font-weight="bold" fill="#DAA520">STORIA</tspan>
        <tspan x="0" dy="20">Testo narrativo + motion comic del capitolo</tspan>

        <tspan x="0" dy="35" font-weight="bold" fill="#DAA520">GALLERIA</tspan>
        <tspan x="0" dy="20">Tutte le immagini/motion comic sbloccati</tspan>

        <tspan x="0" dy="35" font-weight="bold" fill="#DAA520">PERSONAGGI</tspan>
        <tspan x="0" dy="20">NPC incontrati con descrizione e relazione</tspan>

        <tspan x="0" dy="35" font-weight="bold" fill="#DAA520">LUOGHI</tspan>
        <tspan x="0" dy="20">Mappe e descrizioni delle location visitate</tspan>

        <tspan x="0" dy="35" font-weight="bold" fill="#DAA520">INDIZI</tspan>
        <tspan x="0" dy="20">Oggetti chiave e informazioni raccolte</tspan>
      </text>
    </g>

    <!-- Icone tab -->
    <g transform="translate(350, 130)">
      <!-- Icona Storia -->
      <g>
        <rect x="0" y="0" width="40" height="40" fill="#3D2914" stroke="#8B7355" stroke-width="1" rx="5"/>
        <rect x="10" y="8" width="20" height="24" fill="#E8DCC8" rx="2"/>
        <line x="14" y1="14" x2="26" y2="14" stroke="#8B7355" stroke-width="1"/>
        <line x="14" y1="19" x2="26" y2="19" stroke="#8B7355" stroke-width="1"/>
        <line x="14" y1="24" x2="26" y2="24" stroke="#8B7355" stroke-width="1"/>
      </g>

      <!-- Icona Galleria -->
      <g transform="translate(50, 0)">
        <rect x="0" y="0" width="40" height="40" fill="#3D2914" stroke="#8B7355" stroke-width="1" rx="5"/>
        <rect x="8" y="8" width="24" height="18" fill="#1C3A3A" stroke="#8B7355" stroke-width="1"/>
        <circle cx="14" cy="14" r="3" fill="#DAA520"/>
        <path d="M10,24 L16,18 L22,22 L28,16 L30,24 Z" fill="#5C4033"/>
      </g>

      <!-- Icona Personaggi -->
      <g transform="translate(100, 0)">
        <rect x="0" y="0" width="40" height="40" fill="#3D2914" stroke="#8B7355" stroke-width="1" rx="5"/>
        <circle cx="20" cy="14" r="6" fill="#E8DCC8"/>
        <path d="M10,32 Q10,22 20,22 Q30,22 30,32" fill="#5C4033"/>
      </g>

      <!-- Icona Luoghi -->
      <g transform="translate(150, 0)">
        <rect x="0" y="0" width="40" height="40" fill="#3D2914" stroke="#8B7355" stroke-width="1" rx="5"/>
        <path d="M20,8 L8,32 L32,32 Z" fill="none" stroke="#DAA520" stroke-width="2"/>
        <circle cx="20" cy="20" r="4" fill="#8B0000"/>
      </g>

      <!-- Icona Indizi -->
      <g transform="translate(200, 0)">
        <rect x="0" y="0" width="40" height="40" fill="#3D2914" stroke="#8B7355" stroke-width="1" rx="5"/>
        <circle cx="18" cy="18" r="8" fill="none" stroke="#DAA520" stroke-width="2"/>
        <line x1="24" y1="24" x2="32" y2="32" stroke="#DAA520" stroke-width="3" stroke-linecap="round"/>
      </g>
    </g>
  </g>

  <!-- ========== SEZIONE 3: LAYOUT STORIA ========== -->
  <g transform="translate(1290, 100)">
    <rect x="0" y="0" width="580" height="450" fill="#1a1208" stroke="#5C4033" stroke-width="2" rx="10"/>
    <rect x="0" y="0" width="580" height="50" fill="url(#headerGrad)" rx="10"/>
    <rect x="0" y="40" width="580" height="15" fill="url(#headerGrad)"/>
    <text x="290" y="35" font-family="Georgia, serif" font-size="18" fill="#DAA520" text-anchor="middle" font-weight="bold">3. LAYOUT TAB STORIA</text>

    <!-- Schema layout -->
    <g transform="translate(20, 70)">
      <!-- Frame principale -->
      <rect x="0" y="0" width="540" height="350" fill="#0f0f0f" stroke="#5C4033" stroke-width="2" rx="5"/>

      <!-- Area immagine -->
      <rect x="10" y="10" width="250" height="200" fill="#1C3A3A" stroke="#4B0082" stroke-width="2" rx="3"/>
      <text x="135" y="110" font-family="Georgia, serif" font-size="14" fill="#4B0082" text-anchor="middle">[MOTION COMIC]</text>

      <!-- Controlli immagine -->
      <g transform="translate(60, 220)">
        <circle cx="0" cy="15" r="12" fill="#3D2914" stroke="#8B7355" stroke-width="1"/>
        <path d="M-4,12 L4,15 L-4,18 Z" fill="#DAA520"/>
        <circle cx="30" cy="15" r="12" fill="#3D2914" stroke="#8B7355" stroke-width="1"/>
        <rect x="24" y="10" width="12" height="10" fill="#DAA520" rx="1"/>
        <circle cx="60" cy="15" r="12" fill="#3D2914" stroke="#8B7355" stroke-width="1"/>
        <path d="M64,12 L56,15 L64,18 Z" fill="#DAA520"/>
        <text x="100" y="20" font-family="Arial" font-size="10" fill="#8B7355">2/4</text>
      </g>

      <!-- Area testo -->
      <rect x="270" y="10" width="260" height="280" fill="#1a1208" stroke="#5C4033" stroke-width="1" rx="3"/>
      <text x="400" y="30" font-family="Georgia, serif" font-size="12" fill="#DAA520" text-anchor="middle" font-weight="bold">NARRAZIONE</text>
      <line x1="280" y1="40" x2="520" y2="40" stroke="#5C4033" stroke-width="1"/>

      <!-- Linee testo simulate -->
      <line x1="280" y1="60" x2="510" y2="60" stroke="#3D2914" stroke-width="2"/>
      <line x1="280" y1="80" x2="500" y2="80" stroke="#3D2914" stroke-width="2"/>
      <line x1="280" y1="100" x2="515" y2="100" stroke="#3D2914" stroke-width="2"/>
      <line x1="280" y1="120" x2="490" y2="120" stroke="#3D2914" stroke-width="2"/>
      <line x1="280" y1="140" x2="508" y2="140" stroke="#3D2914" stroke-width="2"/>
      <line x1="280" y1="160" x2="495" y2="160" stroke="#3D2914" stroke-width="2"/>
      <line x1="280" y1="180" x2="510" y2="180" stroke="#3D2914" stroke-width="2"/>
      <line x1="280" y1="200" x2="485" y2="200" stroke="#3D2914" stroke-width="2"/>
      <line x1="280" y1="220" x2="500" y2="220" stroke="#3D2914" stroke-width="2"/>
      <line x1="280" y1="240" x2="510" y2="240" stroke="#3D2914" stroke-width="2"/>
      <line x1="280" y1="260" x2="450" y2="260" stroke="#3D2914" stroke-width="2"/>

      <!-- Scrollbar -->
      <rect x="525" y="50" width="6" height="230" fill="#0f0f0f" rx="3"/>
      <rect x="525" y="50" width="6" height="80" fill="#5C4033" rx="3"/>

      <!-- Navigazione sezioni -->
      <g transform="translate(10, 300)">
        <rect x="0" y="0" width="100" height="35" fill="#3D2914" stroke="#8B7355" stroke-width="1" rx="5"/>
        <text x="50" y="23" font-family="Georgia, serif" font-size="11" fill="#DAA520" text-anchor="middle">&#9664; PREC</text>

        <text x="270" y="23" font-family="Georgia, serif" font-size="12" fill="#8B7355" text-anchor="middle">Sezione 2 di 5</text>

        <rect x="430" y="0" width="100" height="35" fill="#3D2914" stroke="#8B7355" stroke-width="1" rx="5"/>
        <text x="480" y="23" font-family="Georgia, serif" font-size="11" fill="#DAA520" text-anchor="middle">SUCC &#9654;</text>
      </g>
    </g>
  </g>

  <!-- ========== SEZIONE 4: FLUSSO UTENTE ========== -->
  <g transform="translate(50, 580)">
    <rect x="0" y="0" width="1820" height="200" fill="#1a1208" stroke="#5C4033" stroke-width="2" rx="10"/>
    <rect x="0" y="0" width="1820" height="50" fill="url(#headerGrad)" rx="10"/>
    <rect x="0" y="40" width="1820" height="15" fill="url(#headerGrad)"/>
    <text x="910" y="35" font-family="Georgia, serif" font-size="18" fill="#DAA520" text-anchor="middle" font-weight="bold">4. FLUSSO UTENTE</text>

    <!-- Step 1 -->
    <g transform="translate(50, 80)">
      <circle cx="30" cy="30" r="30" fill="#4B0082" stroke="#9370DB" stroke-width="2"/>
      <text x="30" y="38" font-family="Georgia, serif" font-size="24" fill="#E8DCC8" text-anchor="middle" font-weight="bold">1</text>
      <text x="30" y="85" font-family="Georgia, serif" font-size="12" fill="#C4B598" text-anchor="middle">Click su</text>
      <text x="30" y="100" font-family="Georgia, serif" font-size="12" fill="#DAA520" text-anchor="middle" font-weight="bold">DIARIO</text>
    </g>

    <!-- Freccia -->
    <path d="M130,110 L180,110" fill="none" stroke="#5C4033" stroke-width="3" marker-end="url(#arrowhead)"/>
    <polygon points="180,105 195,110 180,115" fill="#5C4033"/>

    <!-- Step 2 -->
    <g transform="translate(220, 80)">
      <circle cx="30" cy="30" r="30" fill="#4B0082" stroke="#9370DB" stroke-width="2"/>
      <text x="30" y="38" font-family="Georgia, serif" font-size="24" fill="#E8DCC8" text-anchor="middle" font-weight="bold">2</text>
      <text x="30" y="85" font-family="Georgia, serif" font-size="12" fill="#C4B598" text-anchor="middle">Si apre</text>
      <text x="30" y="100" font-family="Georgia, serif" font-size="12" fill="#DAA520" text-anchor="middle" font-weight="bold">DIARIO</text>
    </g>

    <polygon points="350,105 365,110 350,115" fill="#5C4033"/>
    <path d="M300,110 L350,110" fill="none" stroke="#5C4033" stroke-width="3"/>

    <!-- Step 3 -->
    <g transform="translate(390, 80)">
      <circle cx="30" cy="30" r="30" fill="#4B0082" stroke="#9370DB" stroke-width="2"/>
      <text x="30" y="38" font-family="Georgia, serif" font-size="24" fill="#E8DCC8" text-anchor="middle" font-weight="bold">3</text>
      <text x="30" y="85" font-family="Georgia, serif" font-size="12" fill="#C4B598" text-anchor="middle">Seleziona</text>
      <text x="30" y="100" font-family="Georgia, serif" font-size="12" fill="#DAA520" text-anchor="middle" font-weight="bold">CAPITOLO</text>
    </g>

    <polygon points="520,105 535,110 520,115" fill="#5C4033"/>
    <path d="M470,110 L520,110" fill="none" stroke="#5C4033" stroke-width="3"/>

    <!-- Step 4 -->
    <g transform="translate(560, 80)">
      <circle cx="30" cy="30" r="30" fill="#4B0082" stroke="#9370DB" stroke-width="2"/>
      <text x="30" y="38" font-family="Georgia, serif" font-size="24" fill="#E8DCC8" text-anchor="middle" font-weight="bold">4</text>
      <text x="30" y="85" font-family="Georgia, serif" font-size="12" fill="#C4B598" text-anchor="middle">Naviga</text>
      <text x="30" y="100" font-family="Georgia, serif" font-size="12" fill="#DAA520" text-anchor="middle" font-weight="bold">TAB</text>
    </g>

    <polygon points="690,105 705,110 690,115" fill="#5C4033"/>
    <path d="M640,110 L690,110" fill="none" stroke="#5C4033" stroke-width="3"/>

    <!-- Step 5 -->
    <g transform="translate(730, 80)">
      <circle cx="30" cy="30" r="30" fill="#4B0082" stroke="#9370DB" stroke-width="2"/>
      <text x="30" y="38" font-family="Georgia, serif" font-size="24" fill="#E8DCC8" text-anchor="middle" font-weight="bold">5</text>
      <text x="30" y="85" font-family="Georgia, serif" font-size="12" fill="#C4B598" text-anchor="middle">Leggi/Sfoglia</text>
      <text x="30" y="100" font-family="Georgia, serif" font-size="12" fill="#DAA520" text-anchor="middle" font-weight="bold">CONTENUTO</text>
    </g>

    <polygon points="860,105 875,110 860,115" fill="#5C4033"/>
    <path d="M810,110 L860,110" fill="none" stroke="#5C4033" stroke-width="3"/>

    <!-- Step 6 -->
    <g transform="translate(900, 80)">
      <circle cx="30" cy="30" r="30" fill="#4B0082" stroke="#9370DB" stroke-width="2"/>
      <text x="30" y="38" font-family="Georgia, serif" font-size="24" fill="#E8DCC8" text-anchor="middle" font-weight="bold">6</text>
      <text x="30" y="85" font-family="Georgia, serif" font-size="12" fill="#C4B598" text-anchor="middle">Naviga</text>
      <text x="30" y="100" font-family="Georgia, serif" font-size="12" fill="#DAA520" text-anchor="middle" font-weight="bold">SEZIONI</text>
    </g>

    <polygon points="1030,105 1045,110 1030,115" fill="#5C4033"/>
    <path d="M980,110 L1030,110" fill="none" stroke="#5C4033" stroke-width="3"/>

    <!-- Step 7 -->
    <g transform="translate(1070, 80)">
      <circle cx="30" cy="30" r="30" fill="#8B0000" stroke="#DAA520" stroke-width="2"/>
      <text x="30" y="38" font-family="Georgia, serif" font-size="24" fill="#E8DCC8" text-anchor="middle" font-weight="bold">X</text>
      <text x="30" y="85" font-family="Georgia, serif" font-size="12" fill="#C4B598" text-anchor="middle">Click su</text>
      <text x="30" y="100" font-family="Georgia, serif" font-size="12" fill="#DAA520" text-anchor="middle" font-weight="bold">CHIUDI</text>
    </g>

    <!-- Note aggiuntive -->
    <g transform="translate(1200, 70)">
      <text font-family="Georgia, serif" font-size="13" fill="#C4B598">
        <tspan x="0" dy="0" font-weight="bold" fill="#DAA520">SHORTCUTS:</tspan>
        <tspan x="0" dy="22">ESC = Chiudi diario</tspan>
        <tspan x="0" dy="18">&#8592; &#8594; = Cambio sezione</tspan>
        <tspan x="0" dy="18">&#8593; &#8595; = Scroll testo</tspan>
        <tspan x="0" dy="18">1-5 = Selezione capitolo</tspan>
      </text>
    </g>
  </g>

  <!-- ========== SEZIONE 5: AGGIORNAMENTO AUTOMATICO ========== -->
  <g transform="translate(50, 810)">
    <rect x="0" y="0" width="900" height="220" fill="#1a1208" stroke="#5C4033" stroke-width="2" rx="10"/>
    <rect x="0" y="0" width="900" height="50" fill="url(#headerGrad)" rx="10"/>
    <rect x="0" y="40" width="900" height="15" fill="url(#headerGrad)"/>
    <text x="450" y="35" font-family="Georgia, serif" font-size="18" fill="#DAA520" text-anchor="middle" font-weight="bold">5. AGGIORNAMENTO AUTOMATICO</text>

    <text font-family="Georgia, serif" font-size="14" fill="#C4B598">
      <tspan x="30" y="85">Il diario si aggiorna automaticamente quando:</tspan>

      <tspan x="50" dy="30" fill="#228B22">&#9679;</tspan>
      <tspan dx="10">Il giocatore completa una scena/evento chiave</tspan>

      <tspan x="50" dy="25" fill="#228B22">&#9679;</tspan>
      <tspan dx="10">Un motion comic viene visualizzato in-game</tspan>

      <tspan x="50" dy="25" fill="#228B22">&#9679;</tspan>
      <tspan dx="10">Un nuovo NPC viene incontrato</tspan>

      <tspan x="50" dy="25" fill="#228B22">&#9679;</tspan>
      <tspan dx="10">Una nuova location viene visitata</tspan>

      <tspan x="50" dy="25" fill="#228B22">&#9679;</tspan>
      <tspan dx="10">Un indizio/oggetto chiave viene ottenuto</tspan>
    </text>

    <!-- Notifica esempio -->
    <g transform="translate(550, 80)">
      <rect x="0" y="0" width="300" height="120" fill="#2a1f14" stroke="#DAA520" stroke-width="2" rx="8"/>
      <text x="150" y="30" font-family="Georgia, serif" font-size="14" fill="#DAA520" text-anchor="middle" font-weight="bold">NOTIFICA IN-GAME</text>

      <rect x="20" y="50" width="260" height="50" fill="#3D2914" stroke="#8B7355" stroke-width="1" rx="5"/>
      <circle cx="50" cy="75" r="15" fill="#8B0000"/>
      <text x="50" y="80" font-family="Georgia" font-size="14" fill="#fff" text-anchor="middle" font-weight="bold">!</text>
      <text x="150" y="70" font-family="Georgia, serif" font-size="11" fill="#E8DCC8" text-anchor="middle">Diario aggiornato</text>
      <text x="150" y="88" font-family="Georgia, serif" font-size="10" fill="#8B7355" text-anchor="middle">"Nuova voce nel Capitolo III"</text>
    </g>
  </g>

  <!-- ========== RACCOMANDAZIONI ========== -->
  <g transform="translate(970, 810)">
    <rect x="0" y="0" width="900" height="220" fill="#1a1208" stroke="#5C4033" stroke-width="2" rx="10"/>
    <rect x="0" y="0" width="900" height="50" fill="url(#headerGrad)" rx="10"/>
    <rect x="0" y="40" width="900" height="15" fill="url(#headerGrad)"/>
    <text x="450" y="35" font-family="Georgia, serif" font-size="18" fill="#DAA520" text-anchor="middle" font-weight="bold">6. RACCOMANDAZIONI FINALI</text>

    <text font-family="Georgia, serif" font-size="14" fill="#C4B598">
      <tspan x="30" y="80" font-weight="bold" fill="#FFD700">Per Chronicle of Innsmouth: Curse of Chaos</tspan>

      <tspan x="30" dy="35">1.</tspan>
      <tspan dx="10">Usa lo stile LIBRO ANTICO (Proposta 1) per coerenza con l'estetica</tspan>
      <tspan x="45" dy="20">classica delle avventure grafiche</tspan>

      <tspan x="30" dy="30">2.</tspan>
      <tspan dx="10">Integra elementi LOVECRAFTIANI (bordi, simboli) per atmosfera</tspan>

      <tspan x="30" dy="30">3.</tspan>
      <tspan dx="10">Motion comic a sinistra, testo a destra (stile RDR2/Uncharted)</tspan>

      <tspan x="30" dy="30">4.</tspan>
      <tspan dx="10">Tab per sezioni aggiuntive (personaggi, luoghi, indizi, lore arcana)</tspan>
    </text>
  </g>

  <!-- Legenda -->
  <g transform="translate(20, 1050)">
    <text font-family="Arial, sans-serif" font-size="12" fill="#666">
      <tspan>DIARIO - Struttura navigazione e organizzazione sezioni | Reference per implementazione UI</tspan>
    </text>
  </g>

</svg>